<?xml version="1.0" encoding="UTF-8"?>
<svg id="Layer_2" data-name="Layer 2" xmlns="http://www.w3.org/2000/svg" viewBox="0 0 20.62 23.62">
  <defs>
    <style>
      .cls-1 {
        fill: #b2b2b2;
      }

      .cls-2 {
        fill: #4d4d4d;
      }

      .cls-3 {
        fill: #878787;
      }

      .cls-4 {
        fill: #858585;
      }

      .cls-5 {
        fill: #838383;
      }
    </style>
  </defs>
  <g id="Layer_1-2" data-name="Layer 1">
    <g>
      <path class="cls-5" d="M19.53,2.83c-1.29,.35-2.5,.51-3.83,.68-.41,.05-.8,.06-1.16,.02-.59,.28-1.18,.44-1.74,.49,0,.04-.02,.07-.02,.1,2.57-.35,5.14-.7,7.72-1.06-.2-.12-.39-.25-.56-.39-.13,.05-.26,.11-.4,.15Z"/>
      <path class="cls-2" d="M17.26,12.84c1.39-1.53,1.26-.14,1.21,.52-.1,1.43-.22,2.86-.67,4.16-1.62,4.6-5.12,6.88-8.37,5.86-4.8-1.5-6.99-5.9-5.44-11,.24-.8,.61-1.55,.92-2.33l1.46-1.05c5.5-.27,5.42-.14,4.47,5.23-.13,.72,.15,1.51,.38,2.29,.12,.39,.54,.6,.92,.46,.78-.3,1.59-.57,2.18-1.1,1.05-.94,2-1.99,2.95-3.04Z"/>
      <path class="cls-1" d="M20.49,3.06c-2.57,.35-5.14,.7-7.72,1.06-1.26,.3-2.51,.6-3.77,.91-1.04,1.33-2.08,2.67-3.12,4,5.97-.29,5.91-.3,4.93,5.21-.17,.95,.37,2.02,.58,3.04,.98-.45,2.13-.71,2.89-1.39,1.56-1.4,2.91-3.03,4.35-4.57,.66-2.73,1.31-5.45,1.97-8.18-.04-.02-.08-.04-.12-.07Z"/>
      <path class="cls-3" d="M19.28,1.16c-.32-.17-.62-.37-.92-.56-.27-.09-.52-.21-.76-.34-.05,0-.1,0-.15,0-.38-.04-.75-.08-1.12-.12-.22-.02-.42-.08-.63-.13-.03,0-.07,.01-.1,.02-.3,.09-.62,.17-.97,.2-.35,.07-.71,.11-1.07,.16-.27,.11-.56,.21-.87,.27-.64,.37-1.28,.61-1.93,.72-.95,.54-2.33,.9-4.24,1.09-1.76,.17-4.08,1.72-4.51,2.91-.38,1.05,1.51,2.48,2.39,3.74,1.56-.76,3.12-1.53,4.68-2.29,3.85-1.27,7.7-2.54,11.55-3.81-.11-.3-.22-.6-.34-.89-.35-.27-.67-.57-1-.93Z"/>
      <path class="cls-4" d="M9.01,5.02c-1.04,1.33-2.08,2.67-3.12,4-.34,.36-.68,.72-1.02,1.07-1.1,.29-2.24,.9-3.28,.77-.64-.08-1.71-1.44-1.58-2.01C1.08,4.1,4.25,2.82,9.01,5.02Z"/>
    </g>
  </g>
</svg>